HIERARCHY
ROOT Hips
{
	OFFSET -0.001795 -0.223333 0.028219
	CHANNELS 6 Xposition Yposition Zposition Zrotation Yrotation Xrotation 
	JOINT LeftUpLeg
	{
		OFFSET 0.069520 -0.091406 -0.006815
		CHANNELS 3 Zrotation Yrotation Xrotation
		JOINT LeftLeg
		{
			OFFSET 0.034277 -0.375199 -0.004496
			CHANNELS 3 Zrotation Yrotation Xrotation
			JOINT LeftFoot
			{
				OFFSET -0.013596 -0.397961 -0.043693
				CHANNELS 3 Zrotation Yrotation Xrotation
				JOINT LeftToe
				{
					OFFSET 0.026358 -0.055791 0.119288
					CHANNELS 3 Zrotation Yrotation Xrotation
					End Site
					{
						OFFSET 0.000000 0.000000 0.000000
					}
				}
			}
		}
	}
	JOINT RightUpLeg
	{
		OFFSET -0.067670 -0.090522 -0.004320
		CHANNELS 3 Zrotation Yrotation Xrotation
		JOINT RightLeg
		{
			OFFSET -0.038290 -0.382569 -0.008850
			CHANNELS 3 Zrotation Yrotation Xrotation
			JOINT RightFoot
			{
				OFFSET 0.015774 -0.398415 -0.042312
				CHANNELS 3 Zrotation Yrotation Xrotation
				JOINT RightToe
				{
					OFFSET -0.025372 -0.048144 0.123348
					CHANNELS 3 Zrotation Yrotation Xrotation
					End Site
					{
						OFFSET 0.000000 0.000000 0.000000
					}
				}
			}
		}
	}
	JOINT Spine
	{
		OFFSET -0.002533 0.108963 -0.026696
		CHANNELS 3 Zrotation Yrotation Xrotation
		JOINT Spine1
		{
			OFFSET 0.005487 0.135180 0.001092
			CHANNELS 3 Zrotation Yrotation Xrotation
			JOINT Spine2
			{
				OFFSET 0.001457 0.052922 0.025425
				CHANNELS 3 Zrotation Yrotation Xrotation
				JOINT Neck
				{
					OFFSET -0.002778 0.213870 -0.042857
					CHANNELS 3 Zrotation Yrotation Xrotation
					JOINT Head
					{
						OFFSET 0.005152 0.064970 0.051349
						CHANNELS 3 Zrotation Yrotation Xrotation
						End Site
						{
							OFFSET 0.000000 0.000000 0.000000
						}
					}
				}
				JOINT LeftShoulder
				{
					OFFSET 0.078845 0.121749 -0.034090
					CHANNELS 3 Zrotation Yrotation Xrotation
					JOINT LeftArm
					{
						OFFSET 0.090977 0.030469 -0.008868
						CHANNELS 3 Zrotation Yrotation Xrotation
						JOINT LeftForeArm
						{
							OFFSET 0.259612 -0.012772 -0.027456
							CHANNELS 3 Zrotation Yrotation Xrotation
							JOINT LeftHand
							{
								OFFSET 0.249234 0.008986 -0.001171
								CHANNELS 3 Zrotation Yrotation Xrotation
								End Site
								{
									OFFSET 0.000000 0.000000 0.000000
								}
							}
						}
					}
				}
				JOINT RightShoulder
				{
					OFFSET -0.081759 0.118833 -0.038615
					CHANNELS 3 Zrotation Yrotation Xrotation
					JOINT RightArm
					{
						OFFSET -0.096012 0.032551 -0.009143
						CHANNELS 3 Zrotation Yrotation Xrotation
						JOINT RightForeArm
						{
							OFFSET -0.253742 -0.013329 -0.021401
							CHANNELS 3 Zrotation Yrotation Xrotation
							JOINT RightHand
							{
								OFFSET -0.255298 0.007772 -0.005559
								CHANNELS 3 Zrotation Yrotation Xrotation
								End Site
								{
									OFFSET 0.000000 0.000000 0.000000
								}
							}
						}
					}
				}
			}
		}
	}
}
MOTION
Frames: 13
Frame Time: 0.050000
-0.001990 0.950371 -0.013392 -1.963416 -2.380198 0.306983 9.649638 -0.010923 5.596036 -3.379073 0.417388 -6.316129 3.127644 10.038025 14.829208 0.000000 0.000000 0.000000 -6.891023 0.043372 4.249773 3.311025 -0.402685 -7.381944 -2.144266 -11.676813 23.038196 0.000000 0.000000 0.000000 -6.077992 -0.000421 -7.482732 4.743029 -1.146645 -15.994439 1.460869 3.214480 31.402930 3.362969 -0.070988 -26.360634 0.000000 0.000000 0.000000 -24.292023 4.943058 -4.955845 -47.448107 -10.288444 -4.148510 -59.789497 -66.180639 46.157232 0.000000 0.000000 0.000000 7.555579 9.292599 3.799942 29.655437 26.262082 0.878389 -57.990668 54.528233 -27.324925 0.000000 0.000000 0.000000 
-0.002068 0.950129 -0.013827 -1.900965 -2.198870 0.340530 9.562323 -0.013565 5.521648 -3.538618 0.425333 -6.279270 3.291206 10.226231 14.380211 0.000000 0.000000 0.000000 -6.951020 0.041445 4.324790 3.185470 -0.400928 -7.471065 -1.942331 -11.340911 22.997164 0.000000 0.000000 0.000000 -6.268317 -0.013220 -7.589547 4.991392 -1.241829 -15.712626 1.506852 2.680739 31.768338 2.773995 0.161777 -25.979463 0.000000 0.000000 0.000000 -24.738255 4.990283 -4.901338 -47.236918 -10.589392 -4.103831 -64.610727 -66.427568 50.417546 0.000000 0.000000 0.000000 9.002687 8.999690 3.737225 31.570540 24.226304 0.542495 -58.125548 59.271835 -30.322396 0.000000 0.000000 0.000000 
-0.002118 0.949892 -0.014257 -1.895663 -2.198220 0.415364 9.590683 -0.017852 5.438857 -3.623351 0.430151 -6.298734 3.427159 10.427168 14.349474 0.000000 0.000000 0.000000 -7.098605 0.057837 4.182868 3.299256 -0.404038 -7.374467 -2.036156 -11.482819 23.019377 0.000000 0.000000 0.000000 -6.300473 -0.012313 -7.489095 5.328658 -1.372213 -15.407746 1.416946 2.317823 31.856937 2.430618 0.300064 -25.989682 0.000000 0.000000 0.000000 -25.384363 4.817709 -4.770302 -46.823257 -10.752167 -4.061640 -67.641625 -66.510432 53.092748 0.000000 0.000000 0.000000 10.378433 8.672586 3.634004 33.654035 21.520220 0.006583 -60.416532 65.091885 -35.638620 0.000000 0.000000 0.000000 
-0.002211 0.949735 -0.014696 -1.958174 -1.957327 0.607549 9.726717 -0.040613 5.136304 -3.728895 0.434255 -6.396413 3.763168 10.933565 14.157998 0.000000 0.000000 0.000000 -6.982231 0.051851 4.068943 3.212184 -0.403638 -7.394351 -1.934099 -11.264356 22.885625 0.000000 0.000000 0.000000 -6.335824 -0.011736 -7.368905 5.595039 -1.457247 -15.339183 1.479173 1.675286 31.922814 1.827603 0.553893 -25.762758 0.000000 0.000000 0.000000 -25.438441 4.996562 -4.721507 -47.004163 -10.577517 -4.190440 -71.405059 -65.995709 56.017364 0.000000 0.000000 0.000000 11.515999 8.047574 3.337770 36.206569 18.918666 -0.560155 -64.665624 71.597499 -43.544981 0.000000 0.000000 0.000000 
-0.002293 0.949611 -0.015123 -1.976363 -1.778115 0.740320 9.823366 -0.057300 4.823013 -3.796183 0.435485 -6.080203 3.711064 10.802093 13.770920 0.000000 0.000000 0.000000 -7.009939 0.058505 3.889307 3.274092 -0.407277 -7.338429 -2.082650 -11.441423 22.818286 0.000000 0.000000 0.000000 -6.443819 -0.013645 -7.109086 5.975339 -1.581719 -15.262938 1.485044 1.163075 31.962769 1.405874 0.730732 -25.724123 0.000000 0.000000 0.000000 -25.773945 5.322823 -4.846122 -46.680180 -10.314505 -4.304354 -75.144353 -65.090290 58.496815 0.000000 0.000000 0.000000 12.506402 7.430406 3.026868 38.969872 15.644818 -1.440785 -77.296802 78.800902 -60.512104 0.000000 0.000000 0.000000 
-0.002348 0.949441 -0.015456 -1.994879 -1.516302 0.914749 9.908723 -0.075790 4.678534 -3.932252 0.440624 -6.327700 4.090378 11.415762 13.803352 0.000000 0.000000 0.000000 -6.902987 0.050828 3.833992 3.232403 -0.410511 -7.532902 -1.840913 -10.989195 22.565155 0.000000 0.000000 0.000000 -6.462262 -0.011350 -6.870270 6.224049 -1.653513 -15.282514 1.541955 0.529120 31.920480 0.877076 0.958470 -25.670121 0.000000 0.000000 0.000000 -25.348383 5.416382 -4.680959 -47.080030 -10.078968 -4.457075 -77.727087 -64.328952 60.260487 0.000000 0.000000 0.000000 13.204870 6.951160 2.729732 42.311355 12.192095 -2.516853 -111.013776 85.810140 -100.644319 0.000000 0.000000 0.000000 
-0.002355 0.949481 -0.015611 -1.967110 -1.148033 0.881688 9.988494 -0.092278 4.458685 -4.032925 0.442921 -5.930557 4.096347 11.384158 13.336794 0.000000 0.000000 0.000000 -6.794332 0.034188 3.876317 3.016536 -0.405977 -7.497801 -1.994268 -11.128109 22.408186 0.000000 0.000000 0.000000 -6.711957 -0.021977 -6.450987 6.499402 -1.728792 -15.370947 1.646542 0.209453 31.968510 0.439958 1.197494 -25.599378 0.000000 0.000000 0.000000 -25.112601 5.749380 -4.826956 -46.991383 -9.914655 -4.524739 -81.245521 -63.385711 62.473987 0.000000 0.000000 0.000000 14.102223 6.443388 2.485796 45.275040 8.493052 -3.902394 135.152729 85.354752 138.391815 0.000000 0.000000 0.000000 
-0.002307 0.949422 -0.015557 -1.914843 -0.793387 0.962752 9.940120 -0.104169 4.355725 -4.035962 0.438709 -6.234137 4.376296 11.896036 13.632313 0.000000 0.000000 0.000000 -6.782125 0.026076 3.904741 2.941856 -0.407002 -7.502514 -1.799428 -10.705252 22.038016 0.000000 0.000000 0.000000 -6.722457 -0.022570 -6.272217 6.786329 -1.818392 -15.320161 1.553259 0.106394 31.790504 0.230610 1.336711 -25.504045 0.000000 0.000000 0.000000 -24.638298 5.790361 -4.823264 -47.360338 -9.753447 -4.577991 -84.184240 -62.834533 64.543356 0.000000 0.000000 0.000000 14.502297 5.736231 2.157323 48.354734 4.802669 -5.453161 107.720918 78.672528 103.184673 0.000000 0.000000 0.000000 
-0.002318 0.949512 -0.015352 -1.812998 -0.279157 0.948119 9.857866 -0.116613 4.275974 -3.859515 0.423617 -6.048361 4.281540 11.782505 13.526661 0.000000 0.000000 0.000000 -6.743884 0.011973 3.929907 2.733002 -0.398393 -7.154326 -2.093251 -11.019514 21.786806 0.000000 0.000000 0.000000 -6.929202 -0.033797 -6.031357 6.812948 -1.796189 -15.550001 1.784185 -0.094513 31.844029 -0.165272 1.593973 -25.561259 0.000000 0.000000 0.000000 -24.420851 6.092132 -5.020695 -47.608758 -9.729623 -4.594089 -87.037812 -62.391975 66.664216 0.000000 0.000000 0.000000 14.559087 5.162232 1.904990 51.089667 1.402134 -7.078529 95.969829 72.967068 85.144211 0.000000 0.000000 0.000000 
-0.002427 0.949592 -0.015128 -1.852395 0.231665 0.863480 9.872287 -0.132223 4.326207 -3.818872 0.416060 -6.213101 4.327844 11.938626 13.741634 0.000000 0.000000 0.000000 -6.662633 -0.011987 4.088819 2.668369 -0.398981 -7.055390 -2.216762 -11.068761 21.468905 0.000000 0.000000 0.000000 -6.915597 -0.035999 -5.757602 6.941950 -1.817624 -15.692005 1.838771 0.033176 31.629469 -0.288874 1.734543 -25.325933 0.000000 0.000000 0.000000 -24.233586 6.025684 -5.107523 -48.016177 -10.188611 -4.375762 -90.079090 -62.560686 69.467727 0.000000 0.000000 0.000000 14.713388 4.537707 1.676960 53.345795 -1.889207 -8.709802 90.792948 68.168290 75.182547 0.000000 0.000000 0.000000 
-0.002628 0.949640 -0.015001 -1.874362 0.635561 0.801865 9.899518 -0.145786 4.351404 -3.781595 0.409819 -6.111150 4.220855 11.793405 13.621424 0.000000 0.000000 0.000000 -6.515286 -0.029887 4.086050 2.412102 -0.386378 -6.827745 -2.456090 -11.358414 21.406096 0.000000 0.000000 0.000000 -6.951862 -0.039602 -5.571030 6.938422 -1.792003 -15.877176 1.903473 -0.069524 31.635749 -0.583516 1.934610 -25.314637 0.000000 0.000000 0.000000 -24.237342 6.364276 -5.369140 -48.472396 -11.142389 -4.019339 -93.027970 -62.688182 72.408533 0.000000 0.000000 0.000000 14.772755 4.344237 1.616156 54.770978 -4.296914 -9.970833 90.185975 65.180020 71.586960 0.000000 0.000000 0.000000 
-0.002882 0.949774 -0.015000 -1.878473 0.688442 0.709786 9.896898 -0.145322 4.394330 -3.811252 0.410718 -6.158655 4.240924 11.808015 13.500965 0.000000 0.000000 0.000000 -6.492018 -0.039985 4.222682 2.471504 -0.388046 -6.738633 -2.562668 -11.477133 21.173356 0.000000 0.000000 0.000000 -6.880758 -0.036583 -5.421116 6.946551 -1.779017 -16.045328 1.939013 0.225285 31.591812 -0.583631 1.977003 -24.962277 0.000000 0.000000 0.000000 -24.051287 5.905382 -5.160667 -48.778727 -12.267430 -3.563847 -95.824141 -63.593837 75.997640 0.000000 0.000000 0.000000 14.943998 4.174038 1.595467 55.401762 -5.450370 -10.577858 93.030996 63.788623 73.030741 0.000000 0.000000 0.000000 
-0.003231 0.949760 -0.015140 -1.841860 0.700206 0.696249 9.939731 -0.147103 4.598627 -3.986112 0.419443 -6.427692 4.209056 11.782913 13.632411 0.000000 0.000000 0.000000 -6.485464 -0.044656 4.308624 2.486702 -0.389619 -6.779726 -2.656225 -11.605173 21.077421 0.000000 0.000000 0.000000 -6.855408 -0.039534 -5.591949 6.834708 -1.734171 -16.144777 1.798104 0.067469 31.591413 -0.680231 2.013586 -25.093088 0.000000 0.000000 0.000000 -23.872885 5.877820 -5.062275 -49.233570 -13.439640 -3.127294 -97.540268 -64.559999 78.919002 0.000000 0.000000 0.000000 14.637944 4.138248 1.546262 56.064037 -5.924127 -10.906094 97.786023 63.356628 77.241344 0.000000 0.000000 0.000000 
